<svg preserveAspectRatio="none" width="100%" height="100%" overflow="visible" style="display: block;" viewBox="0 0 275 288.537" fill="none" xmlns="http://www.w3.org/2000/svg">
<g id="Light">
<path id="Ellipse 34" opacity="0.1" d="M200.88 81.5038C220.678 94.9394 210.085 102.82 212.55 122.807C215.182 144.147 229.645 177.726 212.054 195.537C177.986 230.029 115.923 236.747 74.9877 208.967C52.9396 194.004 59.838 161.587 59.2373 139.234C58.7227 120.087 47.7747 111.174 63.8146 94.9337C98.5789 59.7358 159.945 53.723 200.88 81.5038Z" fill="url(#paint0_linear_12278_725)"/>
<path id="Ellipse 35" opacity="0.1" d="M57.2791 145.651C56.4444 125.374 54.5737 112.143 68.6139 98.2123C83.6044 83.3383 83.1225 66.8647 106.84 66.3535C152.771 65.3637 215.066 105.453 216.792 147.378C217.721 169.96 188.779 186 171.856 200.283C157.36 212.518 156.676 224.654 135.051 225.12C88.1808 226.13 59.0051 187.576 57.2791 145.651Z" fill="url(#paint1_linear_12278_725)"/>
<path id="Ellipse 36" opacity="0.1" d="M200.946 214.395C182.867 230.067 180.001 218.871 157.706 217.802C133.902 216.66 90.7335 224.516 74.2392 205.684C42.2963 169.215 45.5234 112.032 82.9057 79.6278C103.04 62.1747 137.343 73.7538 161.908 76.8974C182.952 79.5902 194.573 71.1685 209.613 88.3391C242.208 125.554 238.328 181.991 200.946 214.395Z" fill="url(#paint2_linear_12278_725)"/>
<path id="Ellipse 37" opacity="0.1" d="M143.247 226.887C119.334 226.106 97.9245 215.788 82.3695 199.86C65.7615 182.854 55.8275 159.452 56.6455 134.432C58.2296 85.977 99.6557 46.2136 149.101 47.8301C175.733 48.7007 192.878 80.4959 208.674 99.4883C222.206 115.758 236.449 117.472 235.703 140.286C234.086 189.731 192.692 228.504 143.247 226.887Z" fill="white"/>
<path id="Ellipse 38" opacity="0.1" d="M147.726 227.783C123.812 227.001 102.403 216.684 86.8479 200.756C70.24 183.75 60.3059 160.348 61.1239 135.328C62.7081 86.8728 104.134 47.1093 153.58 48.7258C180.211 49.5965 197.357 81.3917 213.153 100.384C226.684 116.653 240.927 118.368 240.181 141.181C238.565 190.627 197.171 229.4 147.726 227.783Z" fill="url(#paint3_linear_12278_725)"/>
<path id="Ellipse 39" opacity="0.1" d="M196.632 213.175C178.488 228.772 162.079 220.449 139.848 219.236C116.113 217.941 86.6298 222.624 70.3107 203.64C38.7073 166.876 42.3301 109.568 79.8457 77.3189C100.052 59.9489 134.185 71.7743 158.665 75.0813C179.636 77.9141 191.287 69.5446 206.167 86.8538C238.416 124.369 234.147 180.925 196.632 213.175Z" fill="url(#paint4_linear_12278_725)"/>
<path id="Ellipse 40" opacity="0.1" d="M131.457 222.089C107.542 221.355 86.1124 211.081 70.5254 195.184C53.8834 178.211 43.9023 154.829 44.6701 129.807C46.1569 81.3495 87.5031 41.503 136.952 43.0202C163.585 43.8374 180.794 75.5981 196.629 94.5587C210.193 110.801 224.439 112.487 223.739 135.302C222.222 184.75 180.906 223.606 131.457 222.089Z" fill="url(#paint5_linear_12278_725)"/>
<path id="Ellipse 41" opacity="0.1" d="M75.8712 77.9355C90.8801 59.3026 99.4805 68.8403 121.561 65.9951C145.137 62.9574 182.327 48.6638 201.823 64.3677C239.578 94.7799 246.424 151.792 215.391 190.319C198.675 211.07 162.962 205.641 138.288 206.836C117.152 207.859 107.215 218.206 89.439 203.887C50.9118 172.853 44.8373 116.463 75.8712 77.9355Z" fill="url(#paint6_linear_12278_725)"/>
<path id="Ellipse 42" opacity="0.1" d="M152.275 207.208C131.995 207.98 118.785 209.808 104.612 195.732C89.4796 180.704 73.0007 181.134 72.0993 157.428C70.3535 111.52 109.45 49.3847 151.381 47.7902C173.966 46.9314 190.494 75.9074 205.067 92.865C217.55 107.391 229.707 108.113 230.529 129.727C232.311 176.574 194.205 205.614 152.275 207.208Z" fill="url(#paint7_linear_12278_725)"/>
<path id="Ellipse 43" opacity="0.1" d="M227.497 145.229C227.497 169.155 217.159 163.934 201.748 180.001C185.293 197.156 162.954 234.805 137.92 234.805C89.4395 234.805 48.3436 194.7 48.3436 145.229C48.3436 118.583 79.5616 100.408 98.0277 83.9992C113.846 69.9433 115.094 55.6522 137.92 55.6522C187.392 55.6522 227.497 95.757 227.497 145.229Z" fill="url(#paint8_linear_12278_725)"/>
<path id="Ellipse 44" opacity="0.1" d="M185.596 220.736C169.96 238.846 156.225 229.82 137.435 228.989C117.373 228.102 92.339 234.126 78.8737 213.022C52.7968 172.152 56.9017 107.152 89.2328 69.7069C106.647 49.5385 135.316 62.0992 155.972 65.2469C173.667 67.9433 183.678 58.1785 195.955 77.421C222.565 119.127 217.927 183.291 185.596 220.736Z" fill="url(#paint9_linear_12278_725)"/>
<path id="Ellipse 45" opacity="0.1" d="M215.744 100.686C222.841 123.535 220.915 149.013 212.257 171.926C203.012 196.39 186.092 217.93 164.286 230.224C122.055 254.035 74.3606 235.918 59.6861 188.673C51.7823 163.226 73.5848 130.537 84.8033 105.798C94.4133 84.6056 91.2615 70.3447 111.145 59.1344C154.239 34.8376 201.07 53.4409 215.744 100.686Z" fill="url(#paint10_linear_12278_725)"/>
<path id="Ellipse 46" opacity="0.1" d="M78.2489 86.4966C88.6292 69.1343 95.2757 78.7795 111.396 77.0495C128.607 75.2024 155.43 63.0787 170.292 79.208C199.074 110.444 206.072 166.024 184.609 201.924C173.048 221.26 146.63 214.336 128.548 214.345C113.058 214.353 106.117 223.919 92.5659 209.213C63.1954 177.338 56.7855 122.396 78.2489 86.4966Z" fill="url(#paint11_linear_12278_725)"/>
<path id="Ellipse 47" opacity="0.1" d="M159.969 208.707C140.081 209.726 127.114 211.72 113.345 197.765C98.6448 182.864 82.4855 183.495 81.8143 159.714C80.5144 113.659 119.401 50.8246 160.523 48.7178C182.671 47.583 198.616 76.4651 212.75 93.3086C224.858 107.737 236.77 108.314 237.382 129.998C238.709 176.994 201.091 206.6 159.969 208.707Z" fill="url(#paint12_linear_12278_725)"/>
<path id="Ellipse 48" opacity="0.1" d="M159.361 219.877C136.073 225.365 138.784 214.105 119.61 202.79C99.1387 190.709 57.3692 177.601 51.6274 153.234C40.5078 106.046 70.1176 56.8471 118.27 45.5002C144.206 39.3886 169.057 65.6057 189.263 79.8161C206.573 91.9891 220.769 89.9261 226.004 112.143C237.351 160.296 207.514 208.53 159.361 219.877Z" fill="url(#paint13_linear_12278_725)"/>
<path id="Ellipse 49" opacity="0.1" d="M227.497 124.178C227.497 142.482 217.159 138.488 201.748 150.779C185.293 163.902 162.954 192.704 137.92 192.704C89.4395 192.704 48.3436 162.024 48.3436 124.178C48.3436 103.794 79.5616 89.8901 98.0277 77.3377C113.846 66.5849 115.094 55.6522 137.92 55.6522C187.392 55.6522 227.497 86.3324 227.497 124.178Z" fill="url(#paint14_linear_12278_725)"/>
<path id="Ellipse 50" opacity="0.1" d="M196.781 67.7078C213.513 79.0629 223.004 95.1582 225.088 112.05C227.312 130.086 221.092 149.03 206.224 164.083C177.432 193.234 124.979 198.912 90.3831 175.433C71.7492 162.787 77.5794 135.39 77.0717 116.499C76.6368 100.316 67.3841 92.7832 80.9402 79.0581C110.321 49.3106 162.185 44.2289 196.781 67.7078Z" fill="url(#paint15_linear_12278_725)"/>
<path id="Ellipse 51" opacity="0.1" d="M150.769 231.956C125.792 236.238 129.392 224.512 109.86 211.3C89.006 197.194 45.7035 180.612 41.2223 154.478C32.5439 103.867 67.0543 53.787 118.7 44.9313C146.516 40.1615 171.078 69.4976 191.513 85.8379C209.018 99.8353 224.161 98.5801 228.247 122.409C237.102 174.054 202.415 223.1 150.769 231.956Z" fill="url(#paint16_linear_12278_725)"/>
<path id="Ellipse 52" opacity="0.1" d="M210.901 196.92C228.015 180.199 219.095 165.55 217.956 145.491C216.741 124.075 222.074 97.3389 201.557 82.9955C161.823 55.2181 99.4561 59.6991 64.0707 94.2727C45.0118 112.894 57.5976 143.483 60.9957 165.53C63.9067 184.417 54.7077 195.119 73.4153 208.197C113.961 236.543 175.516 231.494 210.901 196.92Z" fill="url(#paint17_linear_12278_725)"/>
<path id="Ellipse 53" opacity="0.1" d="M163.982 72.9671C179.273 87.8801 188.108 108.296 190.271 129.322C192.58 151.772 187.283 174.918 174.117 192.806C148.619 227.447 101.375 231.815 69.759 200.979C52.7302 184.371 57.5338 150.736 56.7597 127.314C56.0965 107.25 47.6199 97.4503 59.6248 81.1404C85.6439 45.7909 132.366 42.1316 163.982 72.9671Z" fill="url(#paint18_linear_12278_725)"/>
<path id="Ellipse 54" opacity="0.5" d="M73.5771 74.545C79.7108 66.2118 89.2106 60.2365 100.499 56.4681C111.793 52.6982 124.911 51.1255 138.326 51.6247C165.138 52.6223 193.243 61.9063 210.399 78.6385C214.598 82.7347 216.489 86.9591 216.976 91.3371C217.459 95.6864 216.547 100.127 215.255 104.645C213.949 109.208 212.278 113.787 211.129 118.627C209.988 123.433 209.395 128.383 210.258 133.535C214.041 156.142 210.097 178.843 197.735 195.638C173.79 228.169 125.726 228.482 91.4916 195.093C86.9319 190.646 82.3652 187.301 78.0349 184.417C73.7246 181.546 69.5897 179.097 65.9945 176.504C62.3824 173.898 59.2394 171.097 56.8578 167.451C54.4708 163.797 52.8677 159.325 52.2937 153.411C51.3135 143.311 53.8388 127.403 57.9827 112.166C62.1272 96.9259 67.9282 82.2196 73.5771 74.545Z" stroke="#E0F2FF"/>
<path id="Ellipse 55" opacity="0.5" d="M43.6076 141.649C42.5151 131.058 46.0611 119.958 52.7843 109.318C59.5111 98.6715 69.4419 88.4475 81.187 79.6017C104.666 61.9186 135.481 49.6819 162.621 50.6479C169.246 50.8837 174.014 52.7964 177.718 55.7921C181.404 58.774 183.983 62.7877 186.3 67.1281C188.639 71.5114 190.678 76.1541 193.358 80.6387C196.017 85.0897 199.254 89.2791 203.884 92.6246C224.144 107.265 237.945 127.305 240.147 148.645C242.279 169.308 233.202 187.967 216.848 201.204C200.493 214.442 176.839 222.28 149.736 221.316C135.233 220.8 124.159 223.674 114.071 224.671C109.048 225.166 104.284 225.19 99.5321 224.05C94.7716 222.909 90.05 220.607 85.1043 216.493C76.6546 209.464 66.7858 195.588 58.7934 181.104C50.8015 166.622 44.6137 151.4 43.6076 141.649Z" stroke="#D9FDFD"/>
<path id="Ellipse 56" opacity="0.1" d="M168.267 53.9259C179.651 55.9801 190.416 62.328 199.907 71.4035C209.4 80.4819 217.642 92.3117 223.977 105.375C236.638 131.485 241.724 162.626 233.83 186.698C231.914 192.539 229.413 195.721 226.332 197.297C223.281 198.858 219.799 198.763 216.115 198.378C208.659 197.598 200.084 195.617 190.738 201.968C180.486 208.936 166.351 216.491 151.916 221.791C137.495 227.086 122.694 230.159 111.153 228.077C66.6885 220.054 41.8784 174.243 57.637 126.192C61.8493 113.348 64.2495 105.678 68.3774 99.6348C72.5289 93.5572 78.4009 89.1542 89.4235 82.7326C98.8596 77.2352 113.303 69.0989 127.997 62.8049C135.343 59.658 142.765 56.9657 149.664 55.2958C156.558 53.6273 162.967 52.9697 168.267 53.9259Z" stroke="#D2BEFD"/>
</g>
<defs>
<linearGradient id="paint0_linear_12278_725" x1="63.8146" y1="94.9337" x2="189.15" y2="218.726" gradientUnits="userSpaceOnUse">
<stop stop-color="#F3F3FD"/>
<stop offset="0.546875" stop-color="#F3F3FD" stop-opacity="0.0989583"/>
<stop offset="1" stop-color="#F3F3FD" stop-opacity="0"/>
</linearGradient>
<linearGradient id="paint1_linear_12278_725" x1="140.251" y1="225.008" x2="136.818" y2="65.7075" gradientUnits="userSpaceOnUse">
<stop stop-color="#D1BBFD"/>
<stop offset="0.411458" stop-color="#D1BBFD" stop-opacity="0.109375"/>
<stop offset="1" stop-color="#D1BBFD" stop-opacity="0"/>
</linearGradient>
<linearGradient id="paint2_linear_12278_725" x1="209.613" y1="88.3391" x2="74.8469" y2="206.378" gradientUnits="userSpaceOnUse">
<stop stop-color="#D8F7F9" stop-opacity="0"/>
<stop offset="0.723958" stop-color="#D8F7F9" stop-opacity="0.0885417"/>
<stop offset="1" stop-color="#D8F7F9"/>
</linearGradient>
<linearGradient id="paint3_linear_12278_725" x1="240.181" y1="141.181" x2="61.1239" y2="135.328" gradientUnits="userSpaceOnUse">
<stop stop-color="#E1F1FE"/>
<stop offset="0.421875" stop-color="#E1F1FE" stop-opacity="0.0989583"/>
<stop offset="1" stop-color="#E1F1FE" stop-opacity="0"/>
</linearGradient>
<linearGradient id="paint4_linear_12278_725" x1="206.167" y1="86.8538" x2="70.3107" y2="203.64" gradientUnits="userSpaceOnUse">
<stop stop-color="#E2E4FA"/>
<stop offset="0.510417" stop-color="#C5C8FD" stop-opacity="0.0989583"/>
<stop offset="1" stop-color="#C2C5FD" stop-opacity="0"/>
</linearGradient>
<linearGradient id="paint5_linear_12278_725" x1="223.739" y1="135.302" x2="44.6701" y2="129.807" gradientUnits="userSpaceOnUse">
<stop stop-color="#F3DAFA"/>
<stop offset="0.307292" stop-color="#F3DAFA" stop-opacity="0.0885417"/>
<stop offset="1" stop-color="#F3DAFA" stop-opacity="0"/>
</linearGradient>
<linearGradient id="paint6_linear_12278_725" x1="89.439" y1="203.887" x2="201.823" y2="64.3677" gradientUnits="userSpaceOnUse">
<stop stop-color="#F3F3FD"/>
<stop offset="0.546875" stop-color="#F3F3FD" stop-opacity="0.0989583"/>
<stop offset="1" stop-color="#F3F3FD" stop-opacity="0"/>
</linearGradient>
<linearGradient id="paint7_linear_12278_725" x1="230.332" y1="124.53" x2="71.0785" y2="130.586" gradientUnits="userSpaceOnUse">
<stop stop-color="#D1BBFD"/>
<stop offset="0.411458" stop-color="#D1BBFD" stop-opacity="0.109375"/>
<stop offset="1" stop-color="#D1BBFD" stop-opacity="0"/>
</linearGradient>
<linearGradient id="paint8_linear_12278_725" x1="137.92" y1="55.6522" x2="137.92" y2="234.805" gradientUnits="userSpaceOnUse">
<stop stop-color="#D8F7F9"/>
<stop offset="0.453125" stop-color="#D8F7F9" stop-opacity="0.0885417"/>
<stop offset="1" stop-color="#D8F7F9" stop-opacity="0"/>
</linearGradient>
<linearGradient id="paint9_linear_12278_725" x1="195.955" y1="77.421" x2="51.2596" y2="169.743" gradientUnits="userSpaceOnUse">
<stop stop-color="#E2E4FA"/>
<stop offset="0.510417" stop-color="#C5C8FD" stop-opacity="0.0989583"/>
<stop offset="1" stop-color="#C2C5FD" stop-opacity="0"/>
</linearGradient>
<linearGradient id="paint10_linear_12278_725" x1="111.145" y1="59.1344" x2="197.157" y2="211.691" gradientUnits="userSpaceOnUse">
<stop stop-color="#F3DAFA"/>
<stop offset="0.307292" stop-color="#F3DAFA" stop-opacity="0.0885417"/>
<stop offset="1" stop-color="#F3DAFA" stop-opacity="0"/>
</linearGradient>
<linearGradient id="paint11_linear_12278_725" x1="92.5659" y1="209.213" x2="199.387" y2="110.784" gradientUnits="userSpaceOnUse">
<stop stop-color="#F3F3FD"/>
<stop offset="0.546875" stop-color="#F3F3FD" stop-opacity="0.0989583"/>
<stop offset="1" stop-color="#F3F3FD" stop-opacity="0"/>
</linearGradient>
<linearGradient id="paint12_linear_12278_725" x1="237.235" y1="124.784" x2="80.9529" y2="129.195" gradientUnits="userSpaceOnUse">
<stop stop-color="#D1BBFD"/>
<stop offset="0.411458" stop-color="#D1BBFD" stop-opacity="0.109375"/>
<stop offset="1" stop-color="#D1BBFD" stop-opacity="0"/>
</linearGradient>
<linearGradient id="paint13_linear_12278_725" x1="226.004" y1="112.143" x2="51.6274" y2="153.234" gradientUnits="userSpaceOnUse">
<stop stop-color="#D8F7F9"/>
<stop offset="0.453125" stop-color="#D8F7F9" stop-opacity="0.0885417"/>
<stop offset="1" stop-color="#D8F7F9" stop-opacity="0"/>
</linearGradient>
<linearGradient id="paint14_linear_12278_725" x1="137.92" y1="55.6522" x2="137.92" y2="192.704" gradientUnits="userSpaceOnUse">
<stop stop-color="#D8F7F9"/>
<stop offset="0.453125" stop-color="#D8F7F9" stop-opacity="0.0885417"/>
<stop offset="1" stop-color="#D8F7F9" stop-opacity="0"/>
</linearGradient>
<linearGradient id="paint15_linear_12278_725" x1="80.9402" y1="79.0581" x2="186.868" y2="183.681" gradientUnits="userSpaceOnUse">
<stop stop-color="#E1F1FE"/>
<stop offset="0.421875" stop-color="#E1F1FE" stop-opacity="0.0989583"/>
<stop offset="1" stop-color="#E1F1FE" stop-opacity="0"/>
</linearGradient>
<linearGradient id="paint16_linear_12278_725" x1="228.247" y1="122.409" x2="41.2223" y2="154.478" gradientUnits="userSpaceOnUse">
<stop stop-color="#D8F7F9"/>
<stop offset="0.453125" stop-color="#D8F7F9" stop-opacity="0.0885417"/>
<stop offset="1" stop-color="#D8F7F9" stop-opacity="0"/>
</linearGradient>
<linearGradient id="paint17_linear_12278_725" x1="73.4153" y1="208.197" x2="174.275" y2="63.9234" gradientUnits="userSpaceOnUse">
<stop stop-color="#E2E4FA"/>
<stop offset="0.510417" stop-color="#C5C8FD" stop-opacity="0.0989583"/>
<stop offset="1" stop-color="#C2C5FD" stop-opacity="0"/>
</linearGradient>
<linearGradient id="paint18_linear_12278_725" x1="59.6248" y1="81.1404" x2="187.195" y2="175.038" gradientUnits="userSpaceOnUse">
<stop stop-color="#F3DAFA"/>
<stop offset="0.307292" stop-color="#F3DAFA" stop-opacity="0.0885417"/>
<stop offset="1" stop-color="#F3DAFA" stop-opacity="0"/>
</linearGradient>
</defs>
</svg>
