<svg preserveAspectRatio="none" width="100%" height="100%" overflow="visible" style="display: block;" viewBox="0 0 18.5759 18.8192" fill="none" xmlns="http://www.w3.org/2000/svg">
<g id="Happy">
<path id="Fill-1" fill-rule="evenodd" clip-rule="evenodd" d="M10.1786 5.0293L11.794 11.8612L9.4375 12.1132L10.1786 5.0293Z" fill="black"/>
<g id="Group-22">
<path id="Fill-2" fill-rule="evenodd" clip-rule="evenodd" d="M10.1817 5.09654L9.4501 12.1002L11.7791 11.8516L10.1817 5.09654ZM9.43635 12.1262C9.43424 12.1262 9.43107 12.1251 9.42895 12.1228C9.42684 12.1194 9.42578 12.116 9.42578 12.1126L10.1658 5.02873C10.1669 5.02308 10.1711 5.01855 10.1764 5.01855C10.1817 5.01855 10.187 5.02195 10.188 5.02647L11.8035 11.8583C11.8045 11.8617 11.8035 11.8663 11.8024 11.8685C11.8003 11.8719 11.7971 11.873 11.7939 11.8742L9.43847 12.1262H9.43635Z" fill="black"/>
<path id="Fill-4" fill-rule="evenodd" clip-rule="evenodd" d="M8.31297 0.0126953C8.31297 0.0126953 8.41024 2.10464 7.97678 2.54315C6.15837 2.32841 2.06483 3.05059 0.0117188 4.01915C0.819431 2.01536 8.31297 0.0126953 8.31297 0.0126953Z" fill="black"/>
<g id="Group-8">
<path id="Fill-6" fill-rule="evenodd" clip-rule="evenodd" d="M8.302 0.0264516C8.12968 0.0739188 6.33347 0.565543 4.46854 1.27416C1.91748 2.24611 0.386632 3.18528 0.0335225 3.99448C2.03589 3.06096 6.09982 2.31053 7.97215 2.53091C8.37495 2.11162 8.3094 0.21293 8.302 0.0264516ZM0.011321 4.03065C0.00814931 4.03065 0.00603488 4.02839 0.00392045 4.02613C-0.000308409 4.02274 -0.000308408 4.01821 0.000748807 4.01256C0.336943 3.17963 1.83819 2.25063 4.46114 1.25269C6.41382 0.510165 8.29143 0.00497836 8.3094 0.000457682C8.31363 -0.000672489 8.3168 0.000457686 8.31892 0.00271803C8.32209 0.0038482 8.32421 0.00723871 8.32421 0.0106292C8.32738 0.0965222 8.41724 2.11388 7.98378 2.55125C7.98167 2.55351 7.97744 2.55577 7.97427 2.55464C6.09877 2.332 2.0084 3.09034 0.016607 4.02952C0.0144926 4.02952 0.0134354 4.03065 0.011321 4.03065Z" fill="black"/>
</g>
<path id="Fill-9" fill-rule="evenodd" clip-rule="evenodd" d="M5.1815 9.37582C4.5958 9.41425 4.01222 9.29784 3.46775 9.10571C3.66862 9.169 3.88324 9.20404 4.10631 9.20404C5.21956 9.20404 6.12559 8.35415 6.12559 7.311C6.12559 6.89058 5.82006 6.38765 5.53144 6.03956C6.95868 6.1797 8.21148 6.97421 8.67348 7.30083C8.26011 7.82523 6.97242 9.25828 5.1815 9.37582ZM2.14095 6.79112C2.10817 6.97082 2.08808 7.16747 2.08808 7.311C2.08808 8.06822 2.56489 8.72258 3.25102 9.02434C2.20121 8.60844 1.33218 7.93938 0.961093 7.62745C1.17677 7.4308 1.57956 7.10079 2.14095 6.79112ZM9.13337 7.05784C9.05831 6.99794 7.26738 5.56715 5.16458 5.53776C2.27415 5.50273 0.530807 7.39011 0.456801 7.47036C0.414513 7.51669 0.392311 7.58111 0.394426 7.64666C0.39654 7.71108 0.424028 7.77324 0.469488 7.81619C0.561466 7.90321 2.66215 9.86293 4.95102 9.86293C5.03666 9.86293 5.12335 9.85954 5.20899 9.85388C7.60992 9.69453 9.11751 7.48279 9.18094 7.38898C9.25178 7.28275 9.23063 7.13696 9.13337 7.05784Z" fill="black"/>
<path id="Fill-11" fill-rule="evenodd" clip-rule="evenodd" d="M15.0339 8.89363C14.5201 8.93205 14.0052 8.79756 13.5337 8.58735C13.6151 8.6043 13.6975 8.6156 13.78 8.6156C14.6776 8.6156 15.406 7.83579 15.406 6.8774C15.406 6.45811 15.2686 6.06481 15.0212 5.75401C15.1206 5.74723 15.222 5.74384 15.3235 5.74384H15.3246C16.4558 5.74384 17.4919 6.59712 17.8545 6.93278C17.5321 7.41084 16.4865 8.78174 15.0339 8.89363ZM11.6476 7.26505C11.7649 7.15768 11.9415 7.00737 12.1688 6.84237C12.2132 7.24471 12.375 7.64931 12.6308 7.97819C12.6995 8.0686 12.7735 8.14658 12.8507 8.21778C12.3062 7.87421 11.8728 7.48317 11.6476 7.26505ZM18.3081 6.72483C18.251 6.66493 16.9115 5.26465 15.3246 5.26465H15.3235C12.8676 5.26465 11.2268 7.01867 11.1581 7.09326C11.0725 7.18594 11.0725 7.33512 11.1571 7.42892C11.1771 7.4504 11.6423 7.95784 12.3517 8.45173C13.2345 9.06767 14.0739 9.3796 14.8488 9.3796C14.9218 9.3796 14.9937 9.37734 15.0656 9.37169C17.051 9.21912 18.289 7.11022 18.3408 7.02093C18.3958 6.926 18.3821 6.80281 18.3081 6.72483Z" fill="black"/>
<path id="Fill-13" fill-rule="evenodd" clip-rule="evenodd" d="M11.4314 0.0126953C11.4314 0.0126953 11.3331 2.10464 11.7676 2.54315C13.585 2.32841 16.5124 2.84377 18.5655 3.8112C17.7578 1.80854 11.4314 0.0126953 11.4314 0.0126953Z" fill="black"/>
<g id="Group-17">
<path id="Fill-15" fill-rule="evenodd" clip-rule="evenodd" d="M12.6745 2.48232C14.4865 2.48232 16.8399 2.99089 18.5431 3.78766C18.1942 2.97846 16.8642 2.07546 14.6906 1.17132C13.11 0.51469 11.5993 0.0727934 11.4407 0.0275866C11.4344 0.215195 11.3688 2.11162 11.7716 2.53091C12.0507 2.49814 12.3541 2.48232 12.6745 2.48232ZM18.5642 3.82383L18.56 3.8227C16.5566 2.87901 13.6376 2.33313 11.7684 2.55465C11.7653 2.55578 11.7621 2.55352 11.76 2.55239C11.5771 2.36704 11.465 1.88446 11.4248 1.11368C11.3952 0.541814 11.4196 0.0162849 11.4196 0.010634C11.4196 0.0083737 11.4217 0.00498319 11.4238 0.00272284C11.427 0.000462503 11.4301 -0.000667672 11.4344 0.000462498C11.4492 0.00498318 13.035 0.457051 14.699 1.14872C16.2362 1.78839 18.1561 2.76825 18.5748 3.80688C18.5769 3.8114 18.5759 3.81705 18.5727 3.82044C18.5706 3.8227 18.5674 3.82383 18.5642 3.82383Z" fill="black"/>
</g>
<path id="Fill-18" fill-rule="evenodd" clip-rule="evenodd" d="M6.31641 14.6523C7.43388 15.7825 8.34203 16.4109 9.85596 16.5183C11.3699 16.6268 12.4303 16.0345 12.4303 16.0345C12.4303 16.0345 11.2187 18.2327 9.75447 18.6407C6.72661 19.4872 6.86933 16.9477 6.31641 14.6523Z" fill="black"/>
<path id="Fill-20" fill-rule="evenodd" clip-rule="evenodd" d="M6.33602 14.6896C6.42271 15.0512 6.49143 15.4197 6.55803 15.7757C6.77794 16.942 6.98515 18.0451 7.71146 18.5288C8.1872 18.8475 8.85431 18.8802 9.75082 18.6294C11.0935 18.2541 12.2374 16.3453 12.4002 16.0627C12.2046 16.1622 11.2034 16.6256 9.85443 16.5306C8.33204 16.421 7.43764 15.7994 6.33602 14.6896ZM8.69467 18.8192C8.29821 18.8192 7.96836 18.7288 7.69983 18.5491C6.96506 18.0586 6.75679 16.9522 6.53583 15.7802C6.46711 15.4118 6.39522 15.0298 6.30536 14.6557C6.30325 14.65 6.30642 14.6455 6.31065 14.6421C6.31382 14.6398 6.32016 14.6398 6.32333 14.6444C7.43552 15.7678 8.32676 16.3973 9.85655 16.5058C11.3504 16.6131 12.414 16.03 12.4245 16.0243C12.4298 16.0209 12.4351 16.022 12.4372 16.0266C12.4414 16.03 12.4414 16.0356 12.4393 16.0401C12.4277 16.0627 11.2087 18.2462 9.75717 18.6531C9.35966 18.7627 9.00655 18.8192 8.69467 18.8192Z" fill="black"/>
</g>
</g>
</svg>
