<svg preserveAspectRatio="none" width="100%" height="100%" overflow="visible" style="display: block;" viewBox="0 0 149.246 120.226" fill="none" xmlns="http://www.w3.org/2000/svg">
<g id="Group-5">
<path id="Fill-1" fill-rule="evenodd" clip-rule="evenodd" d="M3.63805 66.9954C3.63805 66.9954 16.5044 15.9298 25.4357 12.4579C34.3681 8.98599 58.2464 0.79338 58.2464 0.79338C58.2464 0.79338 63.5452 19.3406 80.6393 16.8734C91.6946 15.2776 92.0255 0 92.0255 0C92.0255 0 115.262 3.02434 121.388 6.60246C122.722 7.38227 128.142 19.9509 133.491 36.8424C134.548 40.1787 148.8 75.2106 149.136 75.7938C150.581 78.2982 137.36 70.6809 131.729 75.4253C121.927 83.6846 105.127 83.6665 103.725 83.6225C80.8338 82.8935 84.4738 83.9717 76.736 83.6281C57.2378 82.7647 31.8467 89.496 35.8387 78.5062C26.8312 77.6314 -2.51705 78.6271 0.17356 72.0258C1.57754 64.1507 3.63805 66.9954 3.63805 66.9954Z" fill="#5EBAC3"/>
<path id="Fill-3" fill-rule="evenodd" clip-rule="evenodd" d="M40.9688 119.44C62.903 121.895 108.396 117.877 111.797 117.135C116.079 116.202 116.297 110.869 116.297 110.869L117.535 102.332C117.535 102.332 101.735 101.293 96.5259 101.67C77.7974 103.026 53.4075 114.545 53.4075 114.545" fill="#5EBAC3"/>
</g>
</svg>
