<svg preserveAspectRatio="none" width="100%" height="100%" overflow="visible" style="display: block;" viewBox="0 0 224.7 129.977" fill="none" xmlns="http://www.w3.org/2000/svg">
<g id="Group-8">
<path id="Fill-6" fill-rule="evenodd" clip-rule="evenodd" d="M117.547 99.1134C117.569 99.2976 117.591 99.483 117.613 99.6672C119.012 99.6672 120.418 99.7531 121.809 99.6401C122.921 99.5496 122.823 98.8015 122.37 97.8273C120.696 98.2748 119.12 98.6941 117.547 99.1134ZM151.878 94.5554C150.253 92.3086 148.987 90.5603 147.721 88.8108C147.535 88.926 147.348 89.0413 147.163 89.1566C147.822 90.9411 148.48 92.7234 149.156 94.5554H151.878ZM157.481 93.8796C155.041 91.1807 152.34 89.2267 149.562 87.3155C150.509 89.5228 151.987 91.3005 153.368 93.1619C154.434 94.6006 155.646 94.7453 157.481 93.8796ZM162.913 94.4526C162.47 93.423 162.427 93.1111 162.258 92.9619C159.549 90.5433 156.843 88.1202 154.088 85.7627C153.377 85.1558 152.485 85.1162 150.894 85.6519C151.805 86.3142 152.324 86.616 152.76 87.0194C155.17 89.2481 157.514 91.5627 159.992 93.701C160.578 94.2039 161.594 94.1373 162.913 94.4526ZM129.684 95.5364C135.425 95.1838 141.134 95.4765 146.976 94.5351C145.812 91.2655 144.75 88.2784 143.616 85.0891C138.107 87.571 134.87 92.9641 129.684 95.5364ZM125.206 98.5302C128.274 99.4581 178.993 98.4398 181.219 97.7866C180.799 96.3015 180.799 96.2778 179.279 96.2676C162.382 96.158 145.506 96.7672 128.652 98.0341C127.498 98.1211 126.354 98.3618 125.206 98.5302ZM152.954 77.9815C152.662 75.8375 152.485 74.2734 152.22 72.7239C152.066 71.8243 151.454 71.3225 150.6 71.3496C149.939 71.37 149.267 71.4875 148.625 71.6661C139.176 74.2971 129.728 76.9417 120.285 79.5976C119.582 79.7954 118.909 80.1096 118.141 80.3989C118.269 81.7913 118.38 82.9994 118.524 84.5478C119.924 83.8787 120.985 83.3803 122.038 82.8649C125.403 81.2149 128.768 79.5671 132.128 77.9023C136.334 75.8194 140.638 75.3504 145.169 76.597C147.508 77.2401 149.947 77.4627 152.954 77.9815ZM41.378 74.4135C28.6692 77.6221 16.8738 76.7247 6.44019 67.0787C5.56059 69.6385 4.82159 71.7938 3.99168 74.2135C5.2688 74.6452 6.2002 75.0182 7.1591 75.2736C17.1434 77.9385 27.2969 78.9161 37.5657 78.6144C40.6231 78.5251 40.7045 78.3623 41.378 74.4135ZM213.263 22.2358C213.13 22.1556 212.998 22.0764 212.865 21.9985C212.536 22.4279 212.118 22.8133 211.891 23.2993C210.759 25.7179 209.607 28.1308 208.587 30.6047C204.709 40.0111 200.9 49.4492 197.028 58.8567C194.377 65.2919 191.591 71.6627 189.004 78.1261C187.114 82.848 185.445 87.6727 183.686 92.4544C183.538 92.8579 183.464 93.2919 183.345 93.7462C185.131 94.7928 185.457 93.3213 185.893 92.2182C194.808 69.6171 203.711 47.0114 212.606 24.4023C212.881 23.7039 213.047 22.958 213.263 22.2358ZM171.158 87.2692C171.208 87.0759 171.259 86.8816 171.31 86.6872C170.746 86.373 170.209 85.991 169.619 85.7525C161.871 82.6174 154.004 79.9751 145.681 79.2506C145.107 79.2009 144.534 79.0201 143.981 78.8336C140.984 77.8278 137.979 77.665 135.056 79.0133C130.796 80.9764 126.554 82.987 122.362 85.1094C120.488 86.0577 118.641 86.5979 116.542 86.6103C109.022 86.6578 101.501 86.8635 93.9808 87.007C92.2301 87.0398 90.4751 87.1641 88.7286 87.0771C71.1397 86.1944 53.5857 86.6295 36.0687 88.5791C34.5568 88.7475 33.0524 89.0018 31.5385 89.1306C30.7561 89.1973 29.5921 89.638 29.4124 88.4084C29.2274 87.1404 30.3999 87.2353 31.215 87.1234C31.382 87.0997 31.5501 87.0839 31.7172 87.0601C34.0441 86.7075 36.3689 86.3549 38.6895 86.0023C39.0204 84.1917 39.3154 82.5711 39.6568 80.6927C28.6311 81.1595 18.0241 79.9321 7.48366 77.613C7.16755 78.6076 6.90114 79.2699 6.74784 79.9604C4.85014 88.5666 2.87526 97.1627 2.33925 106.029C2.10032 109.988 1.75355 113.948 2.57712 117.906C3.30766 121.417 5.13559 123.918 8.0831 125.572C10.6765 127.025 13.439 127.726 16.3495 127.86C23.75 128.202 30.7308 126.19 37.6323 123.631C50.4669 118.873 62.6819 112.375 75.6941 108.132C79.3014 106.956 82.9752 106.014 86.6183 104.968C86.6987 104.944 86.7843 104.935 86.8668 104.917C91.0766 103.979 95.3182 103.174 99.4899 102.07C107.027 100.079 114.512 97.8657 122.038 95.828C127.129 94.4492 131.673 92.0566 135.623 88.3123C137.258 86.764 139.069 85.4067 140.898 84.1205C142.396 83.0684 144.109 82.4999 145.943 82.6073C150.239 82.8581 154.533 83.0638 158.707 84.4099C161.208 85.2157 163.765 85.8384 166.319 86.4397C167.911 86.816 169.543 86.9991 171.158 87.2692ZM40.6168 85.7423C41.3642 85.7774 41.693 85.826 42.0176 85.8045C56.2731 84.8269 70.5233 84.2923 84.8253 84.7953C95.0327 85.1535 105.267 84.6506 115.489 84.5138C115.795 84.5093 116.099 84.2946 116.508 84.1386C116.23 81.0228 116.023 77.9634 115.671 74.9232C115.181 70.7009 115.256 67.6302 116.194 65.6954C117.863 67.4912 117.048 69.6589 117.286 71.5395C117.55 73.6427 117.733 75.7584 117.98 78.1499C128.355 75.1922 138.361 72.3408 148.536 69.4385C148.335 68.6451 148.206 67.9557 147.988 67.2991C144.667 57.3547 141.416 47.3832 137.98 37.4852C135.542 30.4623 132.794 23.5626 130.287 16.5669C128.189 10.7126 124.528 6.88695 118.645 5.77938C113.578 4.82552 108.51 3.87505 103.428 3.0342C100.95 2.62508 98.4338 2.46798 95.8436 2.18657C95.5317 3.40264 95.3731 4.38362 95.0317 5.28211C94.0178 7.94479 93.2661 10.812 91.8072 13.173C88.294 18.8645 82.2119 21.4831 75.7206 17.4269C73.0025 15.7271 70.4546 13.8013 68.4046 11.2302C66.2786 8.56525 64.2403 5.82007 62.0656 2.97995C51.6087 4.6187 41.6867 8.27593 32.3705 13.7414C26.7112 17.0596 22.6431 22.0798 20.1058 28.4325C18.947 31.3337 17.8592 34.2823 16.969 37.2874C14.5998 45.2901 12.3627 53.3381 10.0569 61.3634C8.48379 66.8391 8.4489 66.8809 13.2265 69.6962C21.2486 74.4237 29.7761 74.9616 38.5425 72.8765C42.32 71.978 42.2946 71.8605 43.6045 67.9693C44.0612 66.6119 44.4555 65.223 45.0159 63.9142C45.2019 63.4802 45.8151 63.2531 46.2348 62.9321C46.3976 63.4757 46.6873 64.0171 46.6905 64.5618C46.6926 65.0715 46.386 65.5812 46.2317 66.0966C44.5792 71.5949 42.9205 77.0909 41.2924 82.5959C41.0185 83.5193 40.8811 84.4901 40.6168 85.7423ZM150.484 68.9695C153.561 69.4498 153.535 69.4566 154.107 72.3442C154.524 74.4508 155.022 76.5371 155.485 78.6324C157.342 79.2111 159.197 79.7886 161.053 80.3684C165.516 81.7607 169.943 83.2605 174.059 85.6282C174.93 86.1311 176.174 86.4792 176.01 87.8072C175.821 89.334 174.487 89.2538 173.399 89.3205C169.891 89.5363 166.522 88.6367 163.143 87.8241C161.929 87.5314 160.711 87.2579 158.951 86.8499C159.607 87.6738 159.873 88.066 160.192 88.3971C161.885 90.1489 163.564 91.9187 165.312 93.6061C165.699 93.979 166.345 94.2175 166.875 94.222C171.017 94.2559 175.16 94.1904 179.302 94.2231C180.404 94.2322 181.003 93.7473 181.403 92.6974C182.582 89.6053 183.912 86.5741 184.996 83.4458C187.727 75.564 190.856 67.8777 194.187 60.2615C198.585 50.2053 202.585 39.949 206.803 29.8012C207.967 26.9972 209.256 24.2498 210.569 21.5204C211.373 19.85 213.667 19.1776 215.115 20.119C215.905 20.6343 215.878 21.4017 215.535 22.2539C214.534 24.7436 213.58 27.2538 212.596 29.7503C203.871 51.8836 195.143 74.0146 186.421 96.149C186.163 96.8033 185.952 97.4792 185.587 98.5189C186.67 98.5596 187.545 98.6308 188.419 98.6184C199.49 98.4545 210.56 98.2782 221.63 98.1087C222.307 98.0996 223.009 98.0058 223.649 98.1686C224.047 98.2703 224.352 98.7834 224.7 99.1111C224.379 99.4434 224.099 99.9757 223.728 100.065C222.997 100.239 222.216 100.183 221.456 100.195C210.214 100.384 198.974 100.57 187.733 100.751C165.418 101.11 143.103 101.463 120.789 101.821C117.071 101.881 113.341 102.174 109.64 101.94C107.696 101.818 106.067 102.277 104.385 103.448C105.251 103.448 106.116 103.459 106.981 103.446C127.86 103.131 148.738 102.801 169.617 102.501C186.777 102.254 203.939 102.037 221.098 101.83C222.036 101.819 222.975 102.029 223.912 102.137L224.045 102.765C223.643 103.105 223.281 103.615 222.826 103.746C222.189 103.927 221.484 103.834 220.809 103.843C191.813 104.257 162.818 104.666 133.824 105.08C122.833 105.237 111.844 105.416 100.854 105.537C99.7025 105.549 98.5522 105.182 97.3945 105.073C96.8215 105.021 96.2189 105.08 95.6554 105.212C89.0573 106.759 82.4128 108.124 75.8887 109.971C72.0785 111.051 68.4543 112.89 64.7604 114.426C55.1588 118.413 45.6185 122.576 35.9502 126.369C29.4991 128.899 22.7869 130.347 15.8283 129.895C12.663 129.69 9.6573 128.896 6.86836 127.249C3.75381 125.411 1.89311 122.668 0.762943 119.006C-0.662184 114.388 0.293539 109.886 0.574759 105.335C1.14777 96.1026 3.29392 87.1754 5.28994 78.2233C5.36606 77.882 5.35972 77.5203 5.38615 77.2288C5.21805 77.0321 5.13136 76.849 4.99498 76.7824C1.81487 75.2453 1.72818 75.1131 2.85094 71.4694C3.34889 69.8465 3.99168 68.2688 4.64398 66.7069C4.87657 66.1486 5.25822 65.362 5.69485 65.2535C7.36842 64.8432 7.54921 63.4181 7.93826 62.0562C10.484 53.1663 12.9103 44.2312 15.6644 35.4147C16.9669 31.2421 18.6901 27.1746 20.6153 23.2801C23.3451 17.7637 27.7378 13.8737 32.8494 11.046C41.8294 6.07775 51.3814 2.80704 61.2801 0.64841C62.6756 0.343264 63.2994 1.18298 63.9802 2.12328C65.4793 4.19602 66.9658 6.27666 68.4723 8.34261C70.6333 11.3048 73.3387 13.5832 76.3137 15.5441C81.4771 18.9436 86.1574 17.2721 89.5912 12.8769C91.9869 9.80844 93.0314 6.08566 93.6943 2.225C94.0516 0.147744 94.2832 -0.14723 96.1196 0.0528099C103.681 0.875574 111.208 1.83283 118.664 3.56086C125.457 5.13632 129.68 9.37446 132.071 16.1317C135.956 27.108 139.95 38.0401 143.804 49.0299C146.115 55.621 148.251 62.2834 150.484 68.9695Z" fill="black"/>
</g>
</svg>
