<svg preserveAspectRatio="none" width="100%" height="100%" overflow="visible" style="display: block;" viewBox="0 0 46.7889 78.5677" fill="none" xmlns="http://www.w3.org/2000/svg">
<g id="Group-3">
<path id="Fill-1" fill-rule="evenodd" clip-rule="evenodd" d="M42.1392 31.0516C40.9234 31.1059 41.3822 30.5803 41.0397 28.641C43.1414 27.8295 45.444 26.7186 46.0466 24.1452C47.4474 26.5129 45.1903 30.9149 42.1392 31.0516ZM9.40354 8.66069C9.34434 8.49795 9.28514 8.3352 9.22593 8.17246C9.85392 7.84132 10.483 7.51018 11.1099 7.17904L11.3023 7.57347L9.40354 8.66069ZM4.64502 25.5511C1.90049 24.665 0.983882 22.8104 0.776668 20.4292C0.707949 19.6301 0.953223 18.136 1.28413 17.1528C1.67742 15.9842 2.29271 15.0767 3.02854 14.1228C4.03395 12.8175 5.15037 11.6093 6.42431 10.4611C2.92387 14.9942 0.446817 19.6267 4.64502 25.5511ZM46.7095 24.7894C46.3458 23.4298 45.5762 22.2013 45.0972 20.8699C44.0982 18.0886 42.1032 16.5696 39.549 15.8C36.9895 15.0303 34.3877 14.9874 31.7774 15.5807C31.2414 15.7017 30.6842 15.7141 29.7423 15.8215C30.2106 13.4153 30.5574 11.3211 31.0321 9.26194C31.6844 6.43426 31.419 3.82469 29.3976 1.74518C27.3297 -0.381803 24.8294 -0.310602 22.2868 0.615008C21.5732 0.874947 20.9008 1.26938 20.2167 1.6186C18.392 2.54873 16.582 3.51276 14.7446 4.41464C13.1345 5.20576 11.4355 5.80814 9.88352 6.70663C5.72126 9.11954 1.89414 12.0704 0.63923 17.3121C0.329466 18.2796 0.0672761 19.5205 0.0154726 20.237C-0.194913 23.1698 1.76834 26.2281 4.19042 26.5004C7.05653 26.8237 9.88246 27.973 12.6925 26.9401C12.0529 30.2797 11.4471 33.4397 10.8403 36.6042C7.85049 36.6392 6.51312 37.4913 5.95385 39.7291C5.18314 42.8133 6.48669 45.1788 10.6119 47.9838C10.5263 49.3039 10.4597 50.7347 10.336 52.1598C9.65093 60.0801 8.35056 67.8963 6.82182 75.6719C6.64738 76.5591 6.32705 77.722 7.36946 78.0012C8.56517 78.3221 8.5546 76.9885 8.70473 76.1714C9.32214 72.8069 9.96493 69.4435 10.4364 66.0541C11.1934 60.6112 11.8151 55.148 12.5044 49.6949C12.7761 47.5499 12.516 45.9699 10.1436 45.1652C8.18352 44.5007 7.31554 42.142 7.91816 40.2874C8.11691 39.6782 8.66561 38.9131 9.17413 38.791C9.61393 38.6848 10.355 39.2747 10.7314 39.7619C11.3467 40.5586 11.7749 41.5204 12.4039 42.6257C14.6061 40.5959 14.124 37.7558 15.1315 35.5859C16.1993 33.2871 16.7745 30.6866 18.5876 28.8817C22.9951 30.6934 23.8197 30.7261 28.2854 29.3112C29.498 28.9269 30.7033 28.5099 31.9201 28.1414C32.6485 27.9199 33.3865 27.6555 34.1329 27.5956C37.0159 27.3661 39.1134 29.596 38.8999 32.626C38.4611 38.8509 37.7126 45.0318 35.9566 51.007C35.3275 53.1465 34.3464 55.1683 33.5303 57.2456C32.9689 58.6764 31.8725 59.2822 30.5172 59.2901C29.6038 59.2957 28.5962 59.2731 27.7896 58.8843C25.6487 57.8559 23.5607 56.6828 21.5192 55.4396C20.6925 54.9367 20.0391 54.2653 18.9661 55.6057C22.6822 59.7534 27.1362 61.5109 32.5851 61.3029C33.914 66.409 35.1975 71.4496 36.5581 76.4664C36.7875 77.3118 36.7928 78.8861 38.0382 78.5109C39.3249 78.1232 38.4981 76.7908 38.2846 75.942C37.1237 71.323 35.8826 66.7277 34.6678 62.1245C34.4194 61.182 34.0694 60.3185 34.6488 59.2878C38.4907 52.448 39.6452 44.7911 40.4561 37.0381C40.6506 35.1847 40.8398 33.3301 41.027 31.5173C43.2799 31.6314 45.3637 30.6233 46.1418 28.6511C46.1386 28.6534 47.0594 26.0992 46.7095 24.7894Z" fill="black"/>
</g>
</svg>
