<svg width="225" height="207" viewBox="0 0 225 207" fill="none" xmlns="http://www.w3.org/2000/svg">
<path fill-rule="evenodd" clip-rule="evenodd" d="M7.45837 146.035C7.45837 146.035 20.3247 94.9689 29.256 91.4971C38.1885 88.0252 62.0667 79.8326 62.0667 79.8326C62.0667 79.8326 67.3655 98.3798 84.4596 95.9126C95.5149 94.3168 95.8458 79.0392 95.8458 79.0392C95.8458 79.0392 119.082 82.0635 125.208 85.6416C126.542 86.4215 131.962 98.9901 137.311 115.882C138.368 119.218 152.62 154.25 152.957 154.833C154.402 157.337 141.18 149.72 135.55 154.465C125.747 162.724 108.947 162.706 107.545 162.662C84.6541 161.933 88.2941 163.011 80.5564 162.667C61.0581 161.804 35.667 168.535 39.659 157.545C30.6516 156.671 1.30326 157.666 3.99387 151.065C5.39785 143.19 7.45837 146.035 7.45837 146.035Z" fill="#5EBAC3"/>
<path fill-rule="evenodd" clip-rule="evenodd" d="M44.7891 198.48C66.7233 200.934 112.217 196.917 115.617 196.174C119.899 195.241 120.118 189.908 120.118 189.908L121.355 181.371C121.355 181.371 105.555 180.332 100.346 180.709C81.6177 182.066 57.2278 193.584 57.2278 193.584" fill="#5EBAC3"/>
<path fill-rule="evenodd" clip-rule="evenodd" d="M117.547 175.965C117.569 176.149 117.591 176.335 117.613 176.519C119.012 176.519 120.418 176.605 121.809 176.492C122.921 176.401 122.823 175.653 122.37 174.679C120.696 175.126 119.12 175.546 117.547 175.965ZM151.878 171.407C150.253 169.16 148.987 167.412 147.721 165.662C147.535 165.778 147.348 165.893 147.163 166.008C147.822 167.793 148.48 169.575 149.156 171.407H151.878ZM157.481 170.731C155.041 168.032 152.34 166.078 149.562 164.167C150.509 166.374 151.987 168.152 153.368 170.014C154.434 171.452 155.646 171.597 157.481 170.731ZM162.913 171.304C162.47 170.275 162.427 169.963 162.258 169.814C159.549 167.395 156.843 164.972 154.088 162.614C153.377 162.007 152.485 161.968 150.894 162.504C151.805 163.166 152.324 163.468 152.76 163.871C155.17 166.1 157.514 168.414 159.992 170.553C160.578 171.056 161.594 170.989 162.913 171.304ZM129.684 172.388C135.425 172.035 141.134 172.328 146.976 171.387C145.812 168.117 144.75 165.13 143.616 161.941C138.107 164.423 134.87 169.816 129.684 172.388ZM125.206 175.382C128.274 176.31 178.993 175.291 181.219 174.638C180.799 173.153 180.799 173.129 179.279 173.119C162.382 173.01 145.506 173.619 128.652 174.886C127.498 174.973 126.354 175.214 125.206 175.382ZM152.954 154.833C152.662 152.689 152.485 151.125 152.22 149.576C152.066 148.676 151.454 148.174 150.6 148.201C149.939 148.222 149.267 148.339 148.625 148.518C139.176 151.149 129.728 153.793 120.285 156.449C119.582 156.647 118.909 156.961 118.141 157.251C118.269 158.643 118.38 159.851 118.524 161.399C119.924 160.73 120.985 160.232 122.038 159.717C125.403 158.067 128.768 156.419 132.128 154.754C136.334 152.671 140.638 152.202 145.169 153.449C147.508 154.092 149.947 154.314 152.954 154.833ZM41.378 151.265C28.6692 154.474 16.8738 153.576 6.44019 143.93C5.56059 146.49 4.82159 148.645 3.99168 151.065C5.2688 151.497 6.2002 151.87 7.1591 152.125C17.1434 154.79 27.2969 155.768 37.5657 155.466C40.6231 155.377 40.7045 155.214 41.378 151.265ZM213.263 99.0875C213.13 99.0072 212.998 98.9281 212.865 98.8501C212.536 99.2796 212.118 99.665 211.891 100.151C210.759 102.57 209.607 104.982 208.587 107.456C204.709 116.863 200.9 126.301 197.028 135.708C194.377 142.144 191.591 148.514 189.004 154.978C187.114 159.7 185.445 164.524 183.686 169.306C183.538 169.71 183.464 170.144 183.345 170.598C185.131 171.644 185.457 170.173 185.893 169.07C194.808 146.469 203.711 123.863 212.606 101.254C212.881 100.556 213.047 99.8097 213.263 99.0875ZM171.158 164.121C171.208 163.928 171.259 163.733 171.31 163.539C170.746 163.225 170.209 162.843 169.619 162.604C161.871 159.469 154.004 156.827 145.681 156.102C145.107 156.053 144.534 155.872 143.981 155.685C140.984 154.679 137.979 154.517 135.056 155.865C130.796 157.828 126.554 159.839 122.362 161.961C120.488 162.909 118.641 163.45 116.542 163.462C109.022 163.509 101.501 163.715 93.9808 163.859C92.2301 163.891 90.4751 164.016 88.7286 163.929C71.1397 163.046 53.5857 163.481 36.0687 165.431C34.5568 165.599 33.0524 165.853 31.5385 165.982C30.7561 166.049 29.5921 166.49 29.4124 165.26C29.2274 163.992 30.3999 164.087 31.215 163.975C31.382 163.951 31.5501 163.936 31.7172 163.912C34.0441 163.559 36.3689 163.207 38.6895 162.854C39.0204 161.043 39.3154 159.423 39.6568 157.544C28.6311 158.011 18.0241 156.784 7.48366 154.465C7.16755 155.459 6.90114 156.122 6.74784 156.812C4.85014 165.418 2.87526 174.014 2.33925 182.881C2.10032 186.84 1.75355 190.8 2.57712 194.758C3.30766 198.269 5.13559 200.77 8.0831 202.423C10.6765 203.877 13.439 204.578 16.3495 204.712C23.75 205.053 30.7308 203.042 37.6323 200.483C50.4669 195.725 62.6819 189.226 75.6941 184.984C79.3014 183.807 82.9752 182.866 86.6183 181.819C86.6987 181.796 86.7843 181.787 86.8668 181.769C91.0766 180.83 95.3182 180.026 99.4899 178.922C107.027 176.93 114.512 174.717 122.038 172.68C127.129 171.301 131.673 168.908 135.623 165.164C137.258 163.616 139.069 162.258 140.898 160.972C142.396 159.92 144.109 159.352 145.943 159.459C150.239 159.71 154.533 159.916 158.707 161.262C161.208 162.067 163.765 162.69 166.319 163.291C167.911 163.668 169.543 163.851 171.158 164.121ZM40.6168 162.594C41.3642 162.629 41.693 162.678 42.0176 162.656C56.2731 161.679 70.5233 161.144 84.8253 161.647C95.0327 162.005 105.267 161.502 115.489 161.366C115.795 161.361 116.099 161.146 116.508 160.99C116.23 157.874 116.023 154.815 115.671 151.775C115.181 147.553 115.256 144.482 116.194 142.547C117.863 144.343 117.048 146.511 117.286 148.391C117.55 150.494 117.733 152.61 117.98 155.002C128.355 152.044 138.361 149.192 148.536 146.29C148.335 145.497 148.206 144.807 147.988 144.151C144.667 134.206 141.416 124.235 137.98 114.337C135.542 107.314 132.794 100.414 130.287 93.4185C128.189 87.5643 124.528 83.7386 118.645 82.6311C113.578 81.6772 108.51 80.7267 103.428 79.8859C100.95 79.4768 98.4338 79.3197 95.8436 79.0383C95.5317 80.2543 95.3731 81.2353 95.0317 82.1338C94.0178 84.7965 93.2661 87.6637 91.8072 90.0246C88.294 95.7162 82.2119 98.3348 75.7206 94.2786C73.0025 92.5788 70.4546 90.653 68.4046 88.0819C66.2786 85.4169 64.2403 82.6718 62.0656 79.8316C51.6087 81.4704 41.6867 85.1276 32.3705 90.5931C26.7112 93.9113 22.6431 98.9315 20.1058 105.284C18.947 108.185 17.8592 111.134 16.969 114.139C14.5998 122.142 12.3627 130.19 10.0569 138.215C8.48379 143.691 8.4489 143.733 13.2265 146.548C21.2486 151.275 29.7761 151.813 38.5425 149.728C42.32 148.83 42.2946 148.712 43.6045 144.821C44.0612 143.464 44.4555 142.075 45.0159 140.766C45.2019 140.332 45.8151 140.105 46.2348 139.784C46.3976 140.327 46.6873 140.869 46.6905 141.414C46.6926 141.923 46.386 142.433 46.2317 142.948C44.5792 148.447 42.9205 153.943 41.2924 159.448C41.0185 160.371 40.8811 161.342 40.6168 162.594ZM150.484 145.821C153.561 146.301 153.535 146.308 154.107 149.196C154.524 151.302 155.022 153.389 155.485 155.484C157.342 156.063 159.197 156.64 161.053 157.22C165.516 158.612 169.943 160.112 174.059 162.48C174.93 162.983 176.174 163.331 176.01 164.659C175.821 166.186 174.487 166.105 173.399 166.172C169.891 166.388 166.522 165.488 163.143 164.676C161.929 164.383 160.711 164.11 158.951 163.702C159.607 164.525 159.873 164.918 160.192 165.249C161.885 167.001 163.564 168.77 165.312 170.458C165.699 170.831 166.345 171.069 166.875 171.074C171.017 171.108 175.16 171.042 179.302 171.075C180.404 171.084 181.003 170.599 181.403 169.549C182.582 166.457 183.912 163.426 184.996 160.298C187.727 152.416 190.856 144.729 194.187 137.113C198.585 127.057 202.585 116.801 206.803 106.653C207.967 103.849 209.256 101.101 210.569 98.3721C211.373 96.7017 213.667 96.0292 215.115 96.9707C215.905 97.486 215.878 98.2534 215.535 99.1056C214.534 101.595 213.58 104.105 212.596 106.602C203.871 128.735 195.143 150.866 186.421 173.001C186.163 173.655 185.952 174.331 185.587 175.371C186.67 175.411 187.545 175.482 188.419 175.47C199.49 175.306 210.56 175.13 221.63 174.96C222.307 174.951 223.009 174.858 223.649 175.02C224.047 175.122 224.352 175.635 224.7 175.963C224.379 176.295 224.099 176.827 223.728 176.917C222.997 177.091 222.216 177.034 221.456 177.047C210.214 177.235 198.974 177.422 187.733 177.603C165.418 177.962 143.103 178.315 120.789 178.673C117.071 178.733 113.341 179.026 109.64 178.792C107.696 178.67 106.067 179.128 104.385 180.299C105.251 180.299 106.116 180.311 106.981 180.298C127.86 179.983 148.738 179.653 169.617 179.352C186.777 179.106 203.939 178.889 221.098 178.682C222.036 178.671 222.975 178.881 223.912 178.988L224.045 179.617C223.643 179.957 223.281 180.467 222.826 180.598C222.189 180.778 221.484 180.686 220.809 180.695C191.813 181.108 162.818 181.518 133.824 181.931C122.833 182.088 111.844 182.268 100.854 182.389C99.7025 182.4 98.5522 182.034 97.3945 181.924C96.8215 181.872 96.2189 181.931 95.6554 182.063C89.0573 183.611 82.4128 184.976 75.8887 186.823C72.0785 187.903 68.4543 189.742 64.7604 191.278C55.1588 195.265 45.6185 199.427 35.9502 203.22C29.4991 205.751 22.7869 207.198 15.8283 206.746C12.663 206.542 9.6573 205.747 6.86836 204.101C3.75381 202.263 1.89311 199.52 0.762943 195.857C-0.662184 191.239 0.293539 186.738 0.574759 182.187C1.14777 172.954 3.29392 164.027 5.28994 155.075C5.36606 154.734 5.35972 154.372 5.38615 154.08C5.21805 153.884 5.13136 153.701 4.99498 153.634C1.81487 152.097 1.72818 151.965 2.85094 148.321C3.34889 146.698 3.99168 145.12 4.64398 143.559C4.87657 143 5.25822 142.214 5.69485 142.105C7.36842 141.695 7.54921 140.27 7.93826 138.908C10.484 130.018 12.9103 121.083 15.6644 112.266C16.9669 108.094 18.6901 104.026 20.6153 100.132C23.3451 94.6154 27.7378 90.7254 32.8494 87.8977C41.8294 82.9294 51.3814 79.6587 61.2801 77.5001C62.6756 77.1949 63.2994 78.0347 63.9802 78.975C65.4793 81.0477 66.9658 83.1283 68.4723 85.1943C70.6333 88.1565 73.3387 90.4349 76.3137 92.3957C81.4771 95.7953 86.1574 94.1238 89.5912 89.7285C91.9869 86.6601 93.0314 82.9373 93.6943 79.0767C94.0516 76.9994 94.2832 76.7045 96.1196 76.9045C103.681 77.7273 111.208 78.6845 118.664 80.4125C125.457 81.988 129.68 86.2261 132.071 92.9834C135.956 103.96 139.95 114.892 143.804 125.882C146.115 132.473 148.251 139.135 150.484 145.821Z" fill="black"/>
<path fill-rule="evenodd" clip-rule="evenodd" d="M98.1704 31.0516C96.9546 31.1059 97.4134 30.5803 97.0709 28.641C99.1726 27.8295 101.475 26.7186 102.078 24.1452C103.479 26.5129 101.222 30.9149 98.1704 31.0516ZM65.4348 8.66069C65.3756 8.49795 65.3164 8.3352 65.2572 8.17246C65.8852 7.84132 66.5142 7.51018 67.1411 7.17904L67.3336 7.57347L65.4348 8.66069ZM60.6763 25.5511C57.9317 24.665 57.0151 22.8104 56.8079 20.4292C56.7392 19.6301 56.9845 18.136 57.3154 17.1528C57.7087 15.9842 58.324 15.0767 59.0598 14.1228C60.0652 12.8175 61.1816 11.6093 62.4556 10.4611C58.9551 14.9942 56.4781 19.6267 60.6763 25.5511ZM102.741 24.7894C102.377 23.4298 101.607 22.2013 101.128 20.8699C100.129 18.0886 98.1345 16.5696 95.5802 15.8C93.0207 15.0303 90.4189 14.9874 87.8086 15.5807C87.2726 15.7017 86.7155 15.7141 85.7735 15.8215C86.2418 13.4153 86.5886 11.3211 87.0633 9.26194C87.7156 6.43426 87.4502 3.82469 85.4289 1.74518C83.3609 -0.381803 80.8606 -0.310602 78.318 0.615008C77.6044 0.874947 76.932 1.26938 76.248 1.6186C74.4232 2.54873 72.6133 3.51276 70.7758 4.41464C69.1657 5.20576 67.4668 5.80814 65.9148 6.70663C61.7525 9.11954 57.9254 12.0704 56.6705 17.3121C56.3607 18.2796 56.0985 19.5205 56.0467 20.237C55.8363 23.1698 57.7996 26.2281 60.2217 26.5004C63.0878 26.8237 65.9137 27.973 68.7238 26.9401C68.0842 30.2797 67.4784 33.4397 66.8715 36.6042C63.8817 36.6392 62.5444 37.4913 61.9851 39.7291C61.2144 42.8133 62.5179 45.1788 66.6432 47.9838C66.5576 49.3039 66.491 50.7347 66.3673 52.1598C65.6822 60.0801 64.3818 67.8963 62.8531 75.6719C62.6786 76.5591 62.3583 77.722 63.4007 78.0012C64.5964 78.3221 64.5859 76.9885 64.736 76.1714C65.3534 72.8069 65.9962 69.4435 66.4677 66.0541C67.2247 60.6112 67.8463 55.148 68.5356 49.6949C68.8073 47.5499 68.5472 45.9699 66.1748 45.1652C64.2148 44.5007 63.3468 42.142 63.9494 40.2874C64.1482 39.6782 64.6969 38.9131 65.2054 38.791C65.6452 38.6848 66.3863 39.2747 66.7627 39.7619C67.378 40.5586 67.8061 41.5204 68.4352 42.6257C70.6374 40.5959 70.1553 37.7558 71.1628 35.5859C72.2306 33.2871 72.8057 30.6866 74.6188 28.8817C79.0264 30.6934 79.851 30.7261 84.3167 29.3112C85.5293 28.9269 86.7345 28.5099 87.9514 28.1414C88.6798 27.9199 89.4177 27.6555 90.1641 27.5956C93.0471 27.3661 95.1447 29.596 94.9311 32.626C94.4924 38.8509 93.7438 45.0318 91.9878 51.007C91.3588 53.1465 90.3777 55.1683 89.5615 57.2456C89.0001 58.6764 87.9038 59.2822 86.5484 59.2901C85.635 59.2957 84.6275 59.2731 83.8208 58.8843C81.68 57.8559 79.592 56.6828 77.5505 55.4396C76.7237 54.9367 76.0704 54.2653 74.9973 55.6057C78.7134 59.7534 83.1675 61.5109 88.6164 61.3029C89.9453 66.409 91.2287 71.4496 92.5894 76.4664C92.8188 77.3118 92.8241 78.8861 94.0695 78.5109C95.3561 78.1232 94.5294 76.7908 94.3158 75.942C93.155 71.323 91.9138 66.7277 90.6991 62.1245C90.4506 61.182 90.1007 60.3185 90.68 59.2878C94.522 52.448 95.6764 44.7911 96.4873 37.0381C96.6819 35.1847 96.8711 33.3301 97.0582 31.5173C99.3111 31.6314 101.395 30.6233 102.173 28.6511C102.17 28.6534 103.091 26.0992 102.741 24.7894Z" fill="black"/>
<path fill-rule="evenodd" clip-rule="evenodd" d="M86.2958 35.5439L87.9112 42.3758L85.5547 42.6279L86.2958 35.5439Z" fill="black"/>
<path fill-rule="evenodd" clip-rule="evenodd" d="M86.2989 35.6112L85.5673 42.6149L87.8963 42.3662L86.2989 35.6112ZM85.5535 42.6408C85.5514 42.6408 85.5483 42.6397 85.5461 42.6375C85.544 42.6341 85.543 42.6307 85.543 42.6273L86.283 35.5434C86.2841 35.5377 86.2883 35.5332 86.2936 35.5332C86.2989 35.5332 86.3042 35.5366 86.3052 35.5411L87.9206 42.373C87.9217 42.3764 87.9206 42.3809 87.9196 42.3832C87.9175 42.3866 87.9143 42.3877 87.9111 42.3888L85.5557 42.6408H85.5535Z" fill="black"/>
<path fill-rule="evenodd" clip-rule="evenodd" d="M84.4302 30.5273C84.4302 30.5273 84.5274 32.6193 84.094 33.0578C82.2756 32.8431 78.182 33.5652 76.1289 34.5338C76.9366 32.53 84.4302 30.5273 84.4302 30.5273Z" fill="black"/>
<path fill-rule="evenodd" clip-rule="evenodd" d="M84.419 30.5411C84.2467 30.5886 82.4505 31.0802 80.5856 31.7888C78.0345 32.7607 76.5037 33.6999 76.1505 34.5091C78.1529 33.5756 82.2168 32.8252 84.0892 33.0455C84.492 32.6263 84.4264 30.7276 84.419 30.5411ZM76.1283 34.5453C76.1252 34.5453 76.1231 34.543 76.1209 34.5408C76.1167 34.5374 76.1167 34.5328 76.1178 34.5272C76.454 33.6943 77.9552 32.7653 80.5782 31.7673C82.5308 31.0248 84.4085 30.5196 84.4264 30.5151C84.4307 30.514 84.4338 30.5151 84.4359 30.5174C84.4391 30.5185 84.4412 30.5219 84.4412 30.5253C84.4444 30.6112 84.5343 32.6285 84.1008 33.0659C84.0987 33.0681 84.0945 33.0704 84.0913 33.0693C82.2158 32.8466 78.1254 33.605 76.1336 34.5442C76.1315 34.5442 76.1305 34.5453 76.1283 34.5453Z" fill="black"/>
<path fill-rule="evenodd" clip-rule="evenodd" d="M81.2989 39.8904C80.7132 39.9288 80.1296 39.8124 79.5852 39.6203C79.7861 39.6836 80.0007 39.7186 80.2237 39.7186C81.337 39.7186 82.243 38.8687 82.243 37.8256C82.243 37.4052 81.9375 36.9022 81.6489 36.5542C83.0761 36.6943 84.3289 37.4888 84.7909 37.8154C84.3775 38.3398 83.0899 39.7729 81.2989 39.8904ZM78.2584 37.3057C78.2256 37.4854 78.2055 37.6821 78.2055 37.8256C78.2055 38.5828 78.6823 39.2372 79.3685 39.5389C78.3186 39.123 77.4496 38.454 77.0785 38.142C77.2942 37.9454 77.697 37.6154 78.2584 37.3057ZM85.2508 37.5724C85.1757 37.5125 83.3848 36.0817 81.282 36.0524C78.3916 36.0173 76.6482 37.9047 76.5742 37.985C76.5319 38.0313 76.5097 38.0957 76.5119 38.1613C76.514 38.2257 76.5415 38.2878 76.5869 38.3308C76.6789 38.4178 78.7796 40.3775 81.0685 40.3775C81.1541 40.3775 81.2408 40.3741 81.3264 40.3685C83.7274 40.2091 85.2349 37.9974 85.2984 37.9036C85.3692 37.7973 85.3481 37.6516 85.2508 37.5724Z" fill="black"/>
<path fill-rule="evenodd" clip-rule="evenodd" d="M91.151 39.4083C90.6372 39.4467 90.1224 39.3122 89.6509 39.102C89.7323 39.119 89.8147 39.1303 89.8972 39.1303C90.7948 39.1303 91.5232 38.3504 91.5232 37.3921C91.5232 36.9728 91.3857 36.5795 91.1384 36.2687C91.2377 36.2619 91.3392 36.2585 91.4407 36.2585H91.4418C92.573 36.2585 93.6091 37.1118 93.9717 37.4474C93.6492 37.9255 92.6037 39.2964 91.151 39.4083ZM87.7648 37.7797C87.8821 37.6723 88.0587 37.522 88.286 37.357C88.3304 37.7594 88.4922 38.164 88.748 38.4928C88.8167 38.5832 88.8907 38.6612 88.9679 38.7324C88.4234 38.3889 87.99 37.9978 87.7648 37.7797ZM94.4252 37.2395C94.3682 37.1796 93.0287 35.7793 91.4418 35.7793H91.4407C88.9848 35.7793 87.344 37.5333 87.2753 37.6079C87.1897 37.7006 87.1897 37.8498 87.2742 37.9436C87.2943 37.965 87.7595 38.4725 88.4689 38.9664C89.3517 39.5823 90.1911 39.8942 90.966 39.8942C91.039 39.8942 91.1109 39.892 91.1828 39.8863C93.1682 39.7338 94.4062 37.6249 94.458 37.5356C94.513 37.4406 94.4993 37.3175 94.4252 37.2395Z" fill="black"/>
<path fill-rule="evenodd" clip-rule="evenodd" d="M87.5486 30.5273C87.5486 30.5273 87.4503 32.6193 87.8848 33.0578C89.7022 32.8431 92.6296 33.3584 94.6827 34.3258C93.875 32.3232 87.5486 30.5273 87.5486 30.5273Z" fill="black"/>
<path fill-rule="evenodd" clip-rule="evenodd" d="M88.7917 32.9969C90.6037 32.9969 92.9571 33.5055 94.6603 34.3023C94.3114 33.4931 92.9814 32.5901 90.8078 31.6859C89.2272 31.0293 87.7165 30.5874 87.5579 30.5422C87.5515 30.7298 87.486 32.6263 87.8888 33.0455C88.1679 33.0128 88.4713 32.9969 88.7917 32.9969ZM94.6814 34.3385L94.6772 34.3373C92.6737 33.3936 89.7548 32.8478 87.8856 33.0693C87.8824 33.0704 87.8793 33.0681 87.8772 33.067C87.6943 32.8817 87.5822 32.3991 87.542 31.6283C87.5124 31.0564 87.5367 30.5309 87.5367 30.5253C87.5367 30.523 87.5389 30.5196 87.541 30.5174C87.5441 30.5151 87.5473 30.514 87.5515 30.5151C87.5663 30.5196 89.1522 30.9717 90.8162 31.6633C92.3534 32.303 94.2733 33.2829 94.692 34.3215C94.6941 34.326 94.6931 34.3317 94.6899 34.3351C94.6877 34.3373 94.6846 34.3385 94.6814 34.3385Z" fill="black"/>
<path fill-rule="evenodd" clip-rule="evenodd" d="M82.4336 45.167C83.5511 46.2972 84.4592 46.9255 85.9732 47.0329C87.4871 47.1414 88.5475 46.5492 88.5475 46.5492C88.5475 46.5492 87.3359 48.7474 85.8717 49.1554C82.8438 50.0019 82.9865 47.4624 82.4336 45.167Z" fill="black"/>
<path fill-rule="evenodd" clip-rule="evenodd" d="M82.4532 45.2042C82.5399 45.5659 82.6086 45.9343 82.6752 46.2903C82.8951 47.4567 83.1023 48.5597 83.8286 49.0434C84.3044 49.3621 84.9715 49.3949 85.868 49.144C87.2107 48.7688 88.3546 46.8599 88.5174 46.5774C88.3218 46.6768 87.3206 47.1402 85.9716 47.0453C84.4492 46.9356 83.5548 46.3141 82.4532 45.2042ZM84.8119 49.3339C84.4154 49.3339 84.0855 49.2435 83.817 49.0638C83.0823 48.5733 82.874 47.4668 82.653 46.2948C82.5843 45.9264 82.5124 45.5444 82.4225 45.1703C82.4204 45.1647 82.4236 45.1601 82.4278 45.1568C82.431 45.1545 82.4373 45.1545 82.4405 45.159C83.5527 46.2824 84.4439 46.9119 85.9737 47.0204C87.4676 47.1278 88.5311 46.5446 88.5417 46.539C88.547 46.5356 88.5523 46.5367 88.5544 46.5412C88.5586 46.5446 88.5586 46.5503 88.5565 46.5548C88.5449 46.5774 87.3259 48.7609 85.8744 49.1677C85.4768 49.2774 85.1237 49.3339 84.8119 49.3339Z" fill="black"/>
</svg>
