<svg width="14" height="5" viewBox="0 0 14 5" fill="none" xmlns="http://www.w3.org/2000/svg">
  <path d="M5.5 0.5L4 4.5H2.5L1.5 1.5C1.5 1.2 1.3 1 1 1H0V0.5H2.5C2.8 0.5 3 0.7 3.1 1L3.5 2.5L4.5 0.5H5.5ZM6.5 4.5H5.5L6.5 0.5H7.5L6.5 4.5ZM10.5 3C10.5 2.5 9.5 2.5 9.5 2C9.5 1.8 9.7 1.5 10.5 1.5C11 1.5 11.5 1.7 11.5 1.7L11.8 1C11.8 1 11.3 0.5 10.5 0.5C9 0.5 8.5 1.3 8.5 2C8.5 3 10.5 3 10.5 3.5C10.5 4 9.5 4 9 4C8.5 4 8 3.8 8 3.8L7.7 4.5C7.7 4.5 8.3 5 9.3 5C10.8 5 11.5 4.2 11.5 3.5C11.5 2.5 10.5 2.5 10.5 3ZM14 4.5H13L12.8 3.5H11.2L11 4.5H10L11.5 0.5H12.5L14 4.5ZM12.5 2.5L12 1.5L11.5 2.5H12.5Z" fill="#1A1F71"/>
</svg>
